# xmcd CD database file
#
# Track frame offsets:
#	151
#	42023
#	76125
#	120609
#
# Disc length: 2207 seconds
#
# Revision: 0
# Processed by: cddbd v1.5.1PL0 Copyright (c) Steve Scherf et al.
# Submitted via: CDex 1.51
#
DISCID=23089d04
DTITLE=SHAMEK FARRAH AND FOLKS - LA DEE LA LA
DYEAR=1980
DGENRE=Jazz
TTITLE0=LA DEE LA LA SONG
TTITLE1=WAITING FOR MARVIN
TTITLE2=THE WHITE LADY
TTITLE3=AND ALONG CAME RON RAHSAAN
EXTD=YEAR: 1980
EXTT0=
EXTT1=
EXTT2=
EXTT3=
PLAYORDER=
